<svg id="Layer_1" data-name="Layer 1" xmlns="http://www.w3.org/2000/svg" viewBox="0 0 30.24 40"><title>logo</title><polygon points="0 19.68 2.77 19.68 5.51 13.08 8.25 19.68 11.02 19.68 6.91 9.8 8.21 6.71 13.61 19.68 16.37 19.68 8.2 0 0 19.68"/><polygon points="30.24 20.32 27.48 20.32 22.08 33.29 20.78 30.2 24.89 20.32 24.89 20.32 22.12 20.32 22.12 20.32 19.38 26.92 16.64 20.32 16.64 20.32 13.87 20.32 13.87 20.32 17.98 30.2 16.68 33.29 11.28 20.32 8.52 20.32 16.69 40 19.38 33.54 22.07 40 30.24 20.32"/></svg>